<control> default_path=Release\
<region> sample=3_Eb_r.wav pitch_keycenter=d#3 hikey=e3
<region> sample=3_Gb_r.wav pitch_keycenter=f#3 lokey=f3 hikey=g3
<region> sample=3_A_r.wav pitch_keycenter=a3 lokey=g#3 hikey=a#3
<region> sample=4_C_r.wav pitch_keycenter=c4 lokey=b3 hikey=c#4
<region> sample=4_Eb_r.wav pitch_keycenter=d#4 lokey=d4 hikey=e4
<region> sample=4_Gb_r.wav pitch_keycenter=f#4 lokey=f4 hikey=g4
<region> sample=4_A_r.wav pitch_keycenter=a4 lokey=g#4 hikey=a#4
<region> sample=5_C_r.wav pitch_keycenter=c5 lokey=b4 hikey=c#5
<region> sample=5_Eb_r.wav pitch_keycenter=d#5 lokey=d5 hikey=e5
<region> sample=5_Gb_r.wav pitch_keycenter=f#5 lokey=f5 hikey=g5
<region> sample=5_A_r.wav pitch_keycenter=a5 lokey=g#5 hikey=a#5
<region> sample=6_C_r.wav pitch_keycenter=c6 lokey=b5 hikey=c#6
<region> sample=6_Eb_r.wav pitch_keycenter=d#6 lokey=d6 hikey=e6
<region> sample=6_Gb_r.wav pitch_keycenter=f#6 lokey=f6